<svg width="150" viewBox="0 0 113 115" fill="none" xmlns="http://www.w3.org/2000/svg" data-v-7327376d="" class=""><path d="M0 15.6729H6.87357V15.9964C6.87357 17.0748 7.57532 17.9016 8.65493 17.9016C9.64458 17.9016 10.1844 17.2366 10.1844 16.6435C10.1844 15.5291 8.52898 15.1157 6.56767 14.4327C3.77866 13.4262 0.215924 11.7187 0.215924 7.18941C0.215924 3.00158 3.25685 0 8.27707 0C13.2973 0 16.3922 2.69603 16.4462 7.69267H9.91449V7.44104C9.91449 6.36263 9.33869 5.73355 8.25908 5.73355C7.26943 5.73355 6.80159 6.27276 6.80159 6.93778C6.80159 7.76456 8.38503 8.33971 10.2924 9.00473C13.2073 10.0113 16.986 11.6648 16.986 16.4098C16.986 20.2382 14.2869 23.8149 8.67293 23.8149C3.05892 23.8149 0 21.1189 0 15.6729Z" fill="#F8F9FA" data-v-7327376d=""></path><path d="M43.7245 0.179749H50.5981L57.5634 11.0987V0.179749H64.2372V23.5453H57.8747L50.3983 11.8086V23.5453H43.7245V0.179749Z" fill="#F8F9FA" data-v-7327376d=""></path><path d="M41.2054 37.0345C41.2054 30.289 46.438 24.9832 53.1352 24.9832C58.9094 24.9832 63.3628 28.7019 64.8113 33.7166H57.281C56.4838 32.2769 54.9454 31.4016 53.0992 31.4016C49.9683 31.4016 47.9045 33.9718 47.9045 37.0165C47.9045 40.0612 49.9503 42.6314 53.173 42.6314C55.3089 42.6314 56.6116 41.8298 57.3547 40.5159H51.5806V34.3528H65.1388V37.0147C65.1388 43.2497 60.6134 49.0659 53.083 49.0659C46.366 49.0659 41.2072 43.8878 41.2072 37.0327L41.2054 37.0345Z" fill="#F8F9FA" data-v-7327376d=""></path><path d="M12.9554 61.8289C12.9554 55.3782 7.75522 50.1461 1.25952 50.1461V73.5117C7.86138 73.5117 12.9554 68.2976 12.9554 61.8289Z" fill="#F8F9FA" data-v-7327376d=""></path><path d="M15.2946 50.6853H29.1497V56.8323H21.9594V59.2317H29.1497V65.3769H21.9594V67.9399H29.1497V74.0491H15.2946V50.6835V50.6853Z" fill="#F8F9FA" data-v-7327376d=""></path><path d="M51.2819 50.6854H58.1194V74.0509H51.2819V50.6854Z" fill="#F8F9FA" data-v-7327376d=""></path><path d="M60.6385 62.1974C60.6385 55.4519 65.8747 50.1461 72.5773 50.1461C78.3569 50.1461 82.8139 53.8648 84.2624 58.8795H76.7267C75.9295 57.4398 74.3893 56.5645 72.5413 56.5645C69.4068 56.5645 67.3412 59.1347 67.3412 62.1794C67.3412 65.2241 69.3889 67.7943 72.6133 67.7943C74.751 67.7943 76.0555 66.9927 76.7986 65.6788H71.0191V59.5157H84.5701V62.1776C84.5701 68.4126 80.0411 74.2288 72.5054 74.2288C65.8027 74.2288 60.6385 69.0507 60.6385 62.1956V62.1974Z" fill="#F8F9FA" data-v-7327376d=""></path><path d="M101.346 90.2217L99.9888 92.2293V98.8544H93.3851V76.028H99.9888V83.1329L104.932 76.028H112.57L106.056 85.0867L112.998 98.8544H105.682L101.346 90.2217Z" fill="#F8F9FA" data-v-7327376d=""></path><path d="M67.4761 36.9356C67.4761 30.1452 72.849 24.6237 79.7819 24.6237C86.7149 24.6237 92.1273 30.1452 92.1273 36.9356C92.1273 43.726 86.7545 49.2474 79.7819 49.2474C72.8508 49.2888 67.4761 43.8069 67.4761 36.9356Z" fill="#F8F9FA" data-v-7327376d=""></path><path d="M41.0255 11.1274C41.0255 11.1011 41.0255 11.1011 41.0255 11.1274V10.7644C40.8257 4.88881 36.0232 0.179749 30.1393 0.179749C24.2554 0.179749 19.4529 4.88881 19.2532 10.7644V23.7251H41.0255V11.1274Z" fill="#F8F9FA" data-v-7327376d=""></path><path d="M0.899658 76.028H7.53571L10.4417 87.9085L13.5384 76.028H20.142L23.3017 88.0343L26.2077 76.028H32.7484L26.555 99.0341H19.9837L16.824 86.8067L13.6967 99.0341H7.09307L0.899658 76.028Z" fill="#F8F9FA" data-v-7327376d=""></path><path d="M86.9092 50.6854H93.7827L100.748 61.6043V50.6854H107.422V74.0509H101.059L93.583 62.3142V74.0509H86.9092V50.6854Z" fill="#F8F9FA" data-v-7327376d=""></path><path d="M40.4443 74.5829C37.6481 74.5829 35.4799 73.9107 33.9432 72.5681C32.4264 71.2021 31.6688 69.1351 31.6688 66.3618H38.6198V66.6817C38.6198 67.2353 38.7799 67.6954 39.1002 68.0567C39.4205 68.418 39.8577 68.6013 40.4137 68.6013C40.905 68.6013 41.2792 68.4629 41.5347 68.1861C41.8118 67.9093 41.9504 67.6218 41.9504 67.3216C41.9504 67.0448 41.855 66.8094 41.6625 66.617C41.47 66.4032 41.2036 66.2126 40.8618 66.0419C40.5415 65.8711 40.1564 65.7112 39.7084 65.562C39.2603 65.4128 38.7907 65.2528 38.2995 65.0821C37.5941 64.8269 36.8582 64.5159 36.0899 64.1547C35.3431 63.7916 34.6594 63.3333 34.0404 62.7797C33.4214 62.2261 32.9086 61.5431 32.5037 60.7325C32.0971 59.9219 31.8955 58.9405 31.8955 57.7884C31.8955 56.7424 32.0773 55.7736 32.4407 54.8767C32.8258 53.9817 33.3692 53.2124 34.0746 52.5725C34.7799 51.9327 35.6328 51.4312 36.6369 51.0682C37.6409 50.7051 38.7727 50.5236 40.0323 50.5236C42.7007 50.5236 44.7304 51.185 46.1177 52.5078C47.5266 53.8307 48.2536 55.761 48.2949 58.2989H41.6967V58.0437C41.6967 57.4883 41.5581 57.0623 41.281 56.764C41.0039 56.4656 40.5865 56.3164 40.0323 56.3164C39.541 56.3164 39.1668 56.4332 38.9113 56.6687C38.6773 56.9024 38.5586 57.1917 38.5586 57.5332C38.5586 57.9592 38.9005 58.333 39.5842 58.653C40.2896 58.9513 41.1209 59.2713 42.0817 59.6128C42.8069 59.868 43.5662 60.1789 44.3561 60.5402C45.1676 60.9033 45.9036 61.3724 46.5658 61.9475C47.2279 62.5227 47.7731 63.2272 48.1996 64.0594C48.626 64.8916 48.8401 65.9053 48.8401 67.0987C48.8401 68.0585 48.6692 68.9967 48.3273 69.9134C47.9854 70.8085 47.4618 71.6083 46.7583 72.3128C46.0745 72.9958 45.2 73.5494 44.1312 73.9772C43.084 74.3834 41.8568 74.5847 40.4479 74.5847L40.4443 74.5829Z" fill="#F8F9FA" data-v-7327376d=""></path><path d="M15.4745 25.1629H22.3121V48.5285H15.4745V25.1629Z" fill="#F8F9FA" data-v-7327376d=""></path><path d="M25.0111 25.1629H38.8662V31.3098H31.6759V33.7093H38.8662V39.8545H31.6759V42.4175H38.8662V48.5267H25.0111V25.1629Z" fill="#F8F9FA" data-v-7327376d=""></path><path d="M1.25952 25.1629C7.75522 25.1629 12.9554 30.395 12.9554 36.8457C12.9554 43.2964 7.86138 48.5285 1.25952 48.5285V42.1119C4.32923 42.1119 6.29954 39.7089 6.29954 36.8457C6.29954 33.9825 4.22307 31.5795 1.25952 31.5795V25.1629Z" fill="#F8F9FA" data-v-7327376d=""></path><path d="M62.078 76.028H35.0875V82.6782H62.078V76.028Z" fill="#F8F9FA" data-v-7327376d=""></path><path d="M62.078 92.3839H35.0875V99.0341H62.078V92.3839Z" fill="#F8F9FA" data-v-7327376d=""></path><path d="M62.078 84.1161H35.0875V90.7663H62.078V84.1161Z" fill="#F8F9FA" data-v-7327376d=""></path><path d="M91.0478 76.028H64.4172V82.6782H91.0478V76.028Z" fill="#F8F9FA" data-v-7327376d=""></path><path d="M91.0478 92.3839H64.4172V99.0341H91.0478V92.3839Z" fill="#1B1C1E" data-v-7327376d=""></path><path d="M91.0478 84.1161H64.4172V90.7663H91.0478V84.1161Z" fill="#F9F15A" data-v-7327376d=""></path><path d="M0.878052 111.894C0.878052 111.243 1.0364 110.67 1.35488 110.176C1.67337 109.682 2.06743 109.239 2.53706 108.848C3.0067 108.458 3.51412 108.112 4.06113 107.812C4.60633 107.512 5.11555 107.234 5.58519 106.973C5.91627 106.777 6.24915 106.592 6.58023 106.416C6.91132 106.24 7.20461 106.063 7.46192 105.889C7.71743 105.713 7.92796 105.54 8.0935 105.371C8.25904 105.203 8.34181 105.026 8.34181 104.845C8.34181 104.532 8.22485 104.275 7.98914 104.074C7.75342 103.872 7.39535 103.772 6.91132 103.772C6.42729 103.772 6.04402 103.928 5.76152 104.241C5.47722 104.554 5.33687 104.919 5.33687 105.334V105.411H1.27211C1.24332 104.708 1.35488 104.047 1.6032 103.429C1.85151 102.81 2.22578 102.273 2.7224 101.818C3.22082 101.363 3.82361 101.004 4.53616 100.743C5.24871 100.483 6.06022 100.353 6.9725 100.353C7.88477 100.353 8.6513 100.465 9.35665 100.686C10.062 100.907 10.663 101.212 11.1596 101.604C11.6562 101.996 12.0377 102.467 12.3004 103.021C12.5631 103.574 12.6945 104.182 12.6945 104.847C12.6945 105.445 12.5631 105.983 12.3004 106.457C12.0377 106.932 11.7066 107.363 11.3054 107.746C10.9041 108.13 10.4561 108.477 9.95764 108.79C9.45922 109.103 8.97519 109.396 8.50555 109.669C8.06291 109.93 7.63106 110.167 7.21001 110.382C6.78896 110.598 6.41829 110.816 6.1016 111.037H12.6531V114.806H0.878052V111.896V111.894Z" fill="#F9F15A" data-v-7327376d=""></path><path d="M19.9729 115C19.0732 115 18.2617 114.872 17.5365 114.619C16.8114 114.366 16.196 114.008 15.6922 113.544C15.1884 113.082 14.7979 112.532 14.5208 111.894C14.2437 111.256 14.1069 110.546 14.1069 109.766V105.587C14.1069 104.82 14.2455 104.113 14.5208 103.468C14.7979 102.825 15.1902 102.271 15.703 101.807C16.214 101.345 16.833 100.988 17.5581 100.733C18.2833 100.479 19.102 100.352 20.0142 100.352C20.9265 100.352 21.7254 100.479 22.4506 100.733C23.1757 100.986 23.7911 101.345 24.2949 101.807C24.7988 102.269 25.1892 102.823 25.4663 103.468C25.7434 104.113 25.8802 104.825 25.8802 105.607V109.766C25.8802 110.521 25.7488 111.218 25.4861 111.855C25.2234 112.493 24.8401 113.046 24.3363 113.515C23.8325 113.984 23.2135 114.349 22.4812 114.608C21.7488 114.869 20.9121 114.998 19.9729 114.998V115ZM19.9945 111.27C20.4641 111.27 20.8366 111.125 21.1137 110.832C21.3908 110.539 21.5275 110.178 21.5275 109.748V105.629C21.5275 105.174 21.3962 104.802 21.1335 104.516C20.8707 104.23 20.4983 104.086 20.0142 104.086C19.5302 104.086 19.1667 104.232 18.8842 104.525C18.5999 104.818 18.4596 105.179 18.4596 105.609V109.748C18.4596 110.205 18.5945 110.571 18.8645 110.852C19.1344 111.132 19.5104 111.272 19.9945 111.272V111.27Z" fill="#F9F15A" data-v-7327376d=""></path><path d="M27.3323 111.894C27.3323 111.244 27.4906 110.67 27.8091 110.176C28.1276 109.682 28.5217 109.239 28.9913 108.848C29.4609 108.458 29.9683 108.113 30.5153 107.812C31.0606 107.512 31.5698 107.234 32.0394 106.973C32.3705 106.777 32.7034 106.592 33.0345 106.416C33.3655 106.24 33.6588 106.064 33.9161 105.889C34.1716 105.713 34.3822 105.541 34.5477 105.372C34.7133 105.203 34.796 105.027 34.796 104.845C34.796 104.532 34.6791 104.275 34.4434 104.074C34.2076 103.873 33.8496 103.772 33.3655 103.772C32.8815 103.772 32.4982 103.928 32.2157 104.241C31.9314 104.554 31.7911 104.919 31.7911 105.334V105.411H27.7281C27.6993 104.708 27.8109 104.047 28.0592 103.429C28.3075 102.81 28.6818 102.273 29.1784 101.818C29.6768 101.363 30.2796 101.004 30.9922 100.743C31.7047 100.483 32.5162 100.353 33.4285 100.353C34.3408 100.353 35.1073 100.465 35.8127 100.686C36.518 100.907 37.119 101.213 37.6156 101.604C38.1122 101.996 38.4937 102.467 38.7564 103.021C39.0191 103.574 39.1505 104.182 39.1505 104.847C39.1505 105.445 39.0191 105.983 38.7564 106.457C38.4937 106.932 38.1626 107.363 37.7614 107.746C37.3601 108.131 36.9121 108.477 36.4136 108.79C35.9152 109.103 35.4312 109.396 34.9616 109.669C34.5189 109.93 34.0871 110.167 33.666 110.383C33.245 110.598 32.8743 110.816 32.5576 111.037H39.1091V114.806H27.3323V111.896V111.894Z" fill="#1B1C1E" data-v-7327376d=""></path><path d="M40.5612 111.894C40.5612 111.244 40.7195 110.67 41.038 110.176C41.3565 109.682 41.7505 109.239 42.2202 108.848C42.6898 108.458 43.1972 108.113 43.7442 107.812C44.2894 107.512 44.7987 107.234 45.2683 106.973C45.5994 106.777 45.9323 106.592 46.2633 106.416C46.5944 106.24 46.8877 106.064 47.145 105.889C47.4005 105.713 47.6111 105.541 47.7766 105.372C47.9421 105.203 48.0249 105.027 48.0249 104.845C48.0249 104.532 47.908 104.275 47.6722 104.074C47.4365 103.873 47.0785 103.772 46.5944 103.772C46.1104 103.772 45.7271 103.928 45.4446 104.241C45.1603 104.554 45.02 104.919 45.02 105.334V105.411H40.957C40.9282 104.708 41.0398 104.047 41.2881 103.429C41.5364 102.81 41.9107 102.273 42.4073 101.818C42.9057 101.363 43.5085 101.004 44.2211 100.743C44.9336 100.483 45.7451 100.353 46.6574 100.353C47.5697 100.353 48.3362 100.465 49.0416 100.686C49.7469 100.907 50.3479 101.213 50.8445 101.604C51.3411 101.996 51.7226 102.467 51.9853 103.021C52.248 103.574 52.3794 104.182 52.3794 104.847C52.3794 105.445 52.248 105.983 51.9853 106.457C51.7226 106.932 51.3915 107.363 50.9903 107.746C50.589 108.131 50.141 108.477 49.6425 108.79C49.1441 109.103 48.6601 109.396 48.1905 109.669C47.7478 109.93 47.316 110.167 46.8949 110.383C46.4739 110.598 46.1032 110.816 45.7865 111.037H52.338V114.806H40.5612V111.896V111.894Z" fill="#1B1C1E" data-v-7327376d=""></path></svg>