<svg width="77" height="24" viewBox="0 0 77 24" fill="none" xmlns="http://www.w3.org/2000/svg" data-v-1dab287f="" class=""><path d="M0 15.6729H6.87357V15.9964C6.87357 17.0748 7.57532 17.9016 8.65494 17.9016C9.64458 17.9016 10.1844 17.2366 10.1844 16.6435C10.1844 15.5291 8.52898 15.1157 6.56767 14.4327C3.77866 13.4262 0.215924 11.7187 0.215924 7.18941C0.215924 3.00158 3.25685 0 8.27707 0C13.2973 0 16.3922 2.69603 16.4462 7.69267H9.91449V7.44104C9.91449 6.36263 9.33869 5.73355 8.25908 5.73355C7.26943 5.73355 6.80159 6.27276 6.80159 6.93778C6.80159 7.76456 8.38503 8.33971 10.2924 9.00473C13.2073 10.0113 16.986 11.6648 16.986 16.4098C16.986 20.2382 14.2869 23.8149 8.67293 23.8149C3.05892 23.8149 0 21.1189 0 15.6729Z" fill="#1b1c1e" data-v-1dab287f=""></path><path d="M19 0C25.4957 0 30.6959 5.23209 30.6959 11.6828C30.6959 18.1335 25.6019 23.3656 19 23.3656V16.949C22.0697 16.949 24.04 14.546 24.04 11.6828C24.04 8.81961 21.9636 6.41655 19 6.41655V0V0Z" fill="#1b1c1e" data-v-1dab287f=""></path><path d="M44.6959 11.6828C44.6959 5.23209 39.4957 0 33 0V23.3656C39.6019 23.3656 44.6959 18.1515 44.6959 11.6828Z" fill="#E94568" data-v-1dab287f=""></path><path d="M45 0H51.6361L54.542 11.8805L57.6387 0H64.2424L67.4021 12.0063L70.308 0H76.8487L70.6553 23.0061H64.084L60.9244 10.7787L57.7971 23.0061H51.1934L45 0Z" fill="#E94568" data-v-1dab287f=""></path></svg>